<?xml version="1.0" encoding="UTF-8" standalone="no"?>
<!-- Created with Inkscape (http://www.inkscape.org/) -->

<svg
   xmlns:dc="http://purl.org/dc/elements/1.1/"
   xmlns:cc="http://creativecommons.org/ns#"
   xmlns:rdf="http://www.w3.org/1999/02/22-rdf-syntax-ns#"
   xmlns:svg="http://www.w3.org/2000/svg"
   xmlns="http://www.w3.org/2000/svg"
   xmlns:sodipodi="http://sodipodi.sourceforge.net/DTD/sodipodi-0.dtd"
   xmlns:inkscape="http://www.inkscape.org/namespaces/inkscape"
   width="164.97768mm"
   height="123.51653mm"
   viewBox="0 0 164.97768 123.51653"
   version="1.1"
   id="svg8"
   inkscape:version="0.92.4 (5da689c313, 2019-01-14)"
   sodipodi:docname="tick.svg">
  <defs
     id="defs2" />
  <sodipodi:namedview
     id="base"
     pagecolor="#ffffff"
     bordercolor="#666666"
     borderopacity="1.0"
     inkscape:pageopacity="0.0"
     inkscape:pageshadow="2"
     inkscape:zoom="0.35"
     inkscape:cx="308.72059"
     inkscape:cy="472.30249"
     inkscape:document-units="mm"
     inkscape:current-layer="layer1"
     showgrid="false"
     fit-margin-top="0"
     fit-margin-left="0"
     fit-margin-right="0"
     fit-margin-bottom="0"
     inkscape:window-width="1366"
     inkscape:window-height="713"
     inkscape:window-x="0"
     inkscape:window-y="0"
     inkscape:window-maximized="1" />
  <metadata
     id="metadata5">
    <rdf:RDF>
      <cc:Work
         rdf:about="">
        <dc:format>image/svg+xml</dc:format>
        <dc:type
           rdf:resource="http://purl.org/dc/dcmitype/StillImage" />
        <dc:title></dc:title>
      </cc:Work>
    </rdf:RDF>
  </metadata>
  <g
     inkscape:label="Layer 1"
     inkscape:groupmode="layer"
     id="layer1"
     transform="translate(-14.251025,-45.125483)">
    <path
       style="fill:#000000;stroke-width:0.26458332"
       d="M 40.42238,138.9105 C 26.05124,122.55817 14.27417,109.08543 14.2511,108.97108 14.2024,108.72983 38.04027,87.715024 38.33395,87.740264 c 0.10789,0.009 6.92319,7.69364 15.145119,17.076376 8.22193,9.38274 15.13935,17.23546 15.37204,17.4505 0.38022,0.35137 4.89337,-3.53617 44.551011,-38.375336 24.27036,-21.321482 44.22243,-38.766321 44.33794,-38.766321 0.37085,0 21.69811,24.431099 21.48708,24.614179 -0.1118,0.097 -25.20458,22.131692 -55.76173,48.965978 -30.557151,26.8343 -55.863391,49.04765 -56.236081,49.363 l -0.67762,0.57337 z"
       id="path4548"
       inkscape:connector-curvature="0" />
  </g>
</svg>
